<svg aria-hidden="true" style="position:absolute;width:0;height:0;overflow:hidden"
    xmlns="http://www.w3.org/2000/svg">
    <defs>
        <symbol id="star" viewBox="0 0 24 24">
            <svg width="24" height="24" viewBox="0 0 24 24"
                stroke="currentColor" stroke-width="1.5" stroke-linecap="round"
                stroke-linejoin="round" class="lucide lucide-star">
                <polygon
                    points="12 2 15.09 8.26 22 9.27 17 14.14 18.18 21.02 12 17.77 5.82 21.02 7 14.14 2 9.27 8.91 8.26 12 2" />
            </svg>
        </symbol>

        <symbol id="arrow-down" viewBox="0 0 24 24">
            <svg width="24" height="24" viewBox="0 0 24 24"
                fill="none" stroke="currentColor" stroke-width="1.5" stroke-linecap="round"
                stroke-linejoin="round" class="lucide lucide-move-down">
                <path d="M8 18L12 22L16 18" />
                <path d="M12 2V22" />
            </svg>
        </symbol>
        <symbol id="arrow-up" viewBox="0 0 20 24">
            <svg width="24" height="24" viewBox="0 0 24 24"
                fill="none" stroke="currentColor" stroke-width="1.5" stroke-linecap="round"
                stroke-linejoin="round" class="lucide lucide-move-up">
                <path d="M8 6L12 2L16 6" />
                <path d="M12 2V22" />
            </svg>
        </symbol>
        <symbol id="tailwind" viewBox="0 0 800 800">
            <svg width="800px" height="800px" viewBox="0 0 32 32">
                <path
                    d="M9,13.7q1.4-5.6,7-5.6c5.6,0,6.3,4.2,9.1,4.9q2.8.7,4.9-2.1-1.4,5.6-7,5.6c-5.6,0-6.3-4.2-9.1-4.9Q11.1,10.9,9,13.7ZM2,22.1q1.4-5.6,7-5.6c5.6,0,6.3,4.2,9.1,4.9q2.8.7,4.9-2.1-1.4,5.6-7,5.6c-5.6,0-6.3-4.2-9.1-4.9Q4.1,19.3,2,22.1Z"
                    style="fill:#44a8b3" />
            </svg>
        </symbol>
        <symbol id="react" viewBox="0 0 800 800">
            <svg width="800px" height="800px" viewBox="0 0 32 32" fill="none"
                xmlns="http://www.w3.org/2000/svg">
                <path
                    d="M18.6789 15.9759C18.6789 14.5415 17.4796 13.3785 16 13.3785C14.5206 13.3785 13.3211 14.5415 13.3211 15.9759C13.3211 17.4105 14.5206 18.5734 16 18.5734C17.4796 18.5734 18.6789 17.4105 18.6789 15.9759Z"
                    fill="#53C1DE" />
                <path fill-rule="evenodd" clip-rule="evenodd"
                    d="M24.7004 11.1537C25.2661 8.92478 25.9772 4.79148 23.4704 3.39016C20.9753 1.99495 17.7284 4.66843 16.0139 6.27318C14.3044 4.68442 10.9663 2.02237 8.46163 3.42814C5.96751 4.82803 6.73664 8.8928 7.3149 11.1357C4.98831 11.7764 1 13.1564 1 15.9759C1 18.7874 4.98416 20.2888 7.29698 20.9289C6.71658 23.1842 5.98596 27.1909 8.48327 28.5877C10.9973 29.9932 14.325 27.3945 16.0554 25.7722C17.7809 27.3864 20.9966 30.0021 23.4922 28.6014C25.9956 27.1963 25.3436 23.1184 24.7653 20.8625C27.0073 20.221 31 18.7523 31 15.9759C31 13.1835 26.9903 11.7923 24.7004 11.1537ZM24.4162 19.667C24.0365 18.5016 23.524 17.2623 22.8971 15.9821C23.4955 14.7321 23.9881 13.5088 24.3572 12.3509C26.0359 12.8228 29.7185 13.9013 29.7185 15.9759C29.7185 18.07 26.1846 19.1587 24.4162 19.667ZM22.85 27.526C20.988 28.571 18.2221 26.0696 16.9478 24.8809C17.7932 23.9844 18.638 22.9422 19.4625 21.7849C20.9129 21.6602 22.283 21.4562 23.5256 21.1777C23.9326 22.7734 24.7202 26.4763 22.85 27.526ZM9.12362 27.5111C7.26143 26.47 8.11258 22.8946 8.53957 21.2333C9.76834 21.4969 11.1286 21.6865 12.5824 21.8008C13.4123 22.9332 14.2816 23.9741 15.1576 24.8857C14.0753 25.9008 10.9945 28.557 9.12362 27.5111ZM2.28149 15.9759C2.28149 13.874 5.94207 12.8033 7.65904 12.3326C8.03451 13.5165 8.52695 14.7544 9.12123 16.0062C8.51925 17.2766 8.01977 18.5341 7.64085 19.732C6.00369 19.2776 2.28149 18.0791 2.28149 15.9759ZM9.1037 4.50354C10.9735 3.45416 13.8747 6.00983 15.1159 7.16013C14.2444 8.06754 13.3831 9.1006 12.5603 10.2265C11.1494 10.3533 9.79875 10.5569 8.55709 10.8297C8.09125 9.02071 7.23592 5.55179 9.1037 4.50354ZM20.3793 11.5771C21.3365 11.6942 22.2536 11.85 23.1147 12.0406C22.8562 12.844 22.534 13.6841 22.1545 14.5453C21.6044 13.5333 21.0139 12.5416 20.3793 11.5771ZM16.0143 8.0481C16.6054 8.66897 17.1974 9.3623 17.7798 10.1145C16.5985 10.0603 15.4153 10.0601 14.234 10.1137C14.8169 9.36848 15.414 8.67618 16.0143 8.0481ZM9.8565 14.5444C9.48329 13.6862 9.16398 12.8424 8.90322 12.0275C9.75918 11.8418 10.672 11.69 11.623 11.5748C10.9866 12.5372 10.3971 13.5285 9.8565 14.5444ZM11.6503 20.4657C10.6679 20.3594 9.74126 20.2153 8.88556 20.0347C9.15044 19.2055 9.47678 18.3435 9.85796 17.4668C10.406 18.4933 11.0045 19.4942 11.6503 20.4657ZM16.0498 23.9915C15.4424 23.356 14.8365 22.6531 14.2448 21.8971C15.4328 21.9423 16.6231 21.9424 17.811 21.891C17.2268 22.6608 16.6369 23.3647 16.0498 23.9915ZM22.1667 17.4222C22.5677 18.3084 22.9057 19.1657 23.1742 19.9809C22.3043 20.1734 21.3652 20.3284 20.3757 20.4435C21.015 19.4607 21.6149 18.4536 22.1667 17.4222ZM18.7473 20.5941C16.9301 20.72 15.1016 20.7186 13.2838 20.6044C12.2509 19.1415 11.3314 17.603 10.5377 16.0058C11.3276 14.4119 12.2404 12.8764 13.2684 11.4158C15.0875 11.2825 16.9178 11.2821 18.7369 11.4166C19.7561 12.8771 20.6675 14.4086 21.4757 15.9881C20.6771 17.5812 19.7595 19.1198 18.7473 20.5941ZM22.8303 4.4666C24.7006 5.51254 23.8681 9.22726 23.4595 10.8426C22.2149 10.5641 20.8633 10.3569 19.4483 10.2281C18.6239 9.09004 17.7698 8.05518 16.9124 7.15949C18.1695 5.98441 20.9781 3.43089 22.8303 4.4666Z"
                    fill="#53C1DE" />
            </svg>
        </symbol>
        <symbol id="next" viewBox="0 0 800 800">
            <svg width="800px" height="800px" viewBox="0 -101.5 512 512" version="1.1">
                <g>
                    <path
                        d="M120.81043,80.5613102 L217.378325,80.5613102 L217.378325,88.2366589 L129.662487,88.2366589 L129.662487,146.003758 L212.147564,146.003758 L212.147564,153.679106 L129.662487,153.679106 L129.662487,217.101725 L218.384241,217.101725 L218.384241,224.777073 L120.81043,224.777073 L120.81043,80.5613102 Z M226.0292,80.5613102 L236.289538,80.5613102 L281.756922,143.983929 L328.230222,80.5613102 L391.441486,0 L287.591232,150.649363 L341.105941,224.777073 L330.443237,224.777073 L281.756922,157.314798 L232.869425,224.777073 L222.407904,224.777073 L276.324978,150.649363 L226.0292,80.5613102 Z M344.928421,88.2366588 L344.928421,80.5613102 L454.975585,80.5613102 L454.975585,88.2366589 L404.27744,88.2366589 L404.27744,224.777073 L395.425382,224.777073 L395.425382,88.2366589 L344.928421,88.2366588 Z M1.42108547e-14,80.5613102 L11.0650714,80.5613102 L163.64593,308.884007 L100.591558,224.777073 L9.25442331,91.4683847 L8.85205708,224.777073 L1.42108547e-14,224.777073 L1.42108547e-14,80.5613102 Z M454.083705,214.785469 C452.275167,214.785469 450.918762,213.38418 450.918762,211.573285 C450.918762,209.762388 452.275167,208.361099 454.083705,208.361099 C455.913774,208.361099 457.248648,209.762388 457.248648,211.573285 C457.248648,213.38418 455.913774,214.785469 454.083705,214.785469 Z M462.781915,206.334618 L467.518563,206.334618 C467.583153,208.900055 469.456284,210.624719 472.212151,210.624719 C475.290972,210.624719 477.03492,208.770705 477.03492,205.29982 L477.03492,183.310363 L481.85769,183.310363 L481.85769,205.321379 C481.85769,211.573285 478.240613,215.173518 472.255212,215.173518 C466.635824,215.173518 462.781915,211.681076 462.781915,206.334618 Z M488.166045,206.054362 L492.945754,206.054362 C493.354828,209.007848 496.239878,210.883419 500.395211,210.883419 C504.270652,210.883419 507.11264,208.878498 507.11264,206.119036 C507.11264,203.747625 505.304102,202.324777 501.191828,201.354653 L497.187209,200.384531 C491.56782,199.069474 489.005723,196.353129 489.005723,191.782772 C489.005723,186.24229 493.527071,182.555823 500.30909,182.555823 C506.617445,182.555823 511.224912,186.24229 511.504805,191.480955 L506.811217,191.480955 C506.359083,188.613703 503.861576,186.824365 500.244499,186.824365 C496.43365,186.824365 493.893085,188.656819 493.893085,191.459398 C493.893085,193.679901 495.52938,194.95184 499.577063,195.900406 L503.000368,196.741178 C509.373314,198.228702 512,200.815695 512,205.493846 C512,211.443935 507.392533,215.173518 500.029197,215.173518 C493.139526,215.173518 488.51053,211.6164 488.166045,206.054362 Z"
                        fill="#000000" fill-rule="nonzero">

                    </path>
                </g>
            </svg>
        </symbol>
        <symbol id="typescript" viewBox="0 0 800 800">

            <svg width="800px" height="800px" viewBox="0 0 32 32">
                <rect x="2" y="2" width="28" height="28" rx="1.312" style="fill:#3178c6" />
                <path
                    d="M18.245,23.759v3.068a6.492,6.492,0,0,0,1.764.575,11.56,11.56,0,0,0,2.146.192,9.968,9.968,0,0,0,2.088-.211,5.11,5.11,0,0,0,1.735-.7,3.542,3.542,0,0,0,1.181-1.266,4.469,4.469,0,0,0,.186-3.394,3.409,3.409,0,0,0-.717-1.117,5.236,5.236,0,0,0-1.123-.877,12.027,12.027,0,0,0-1.477-.734q-.6-.249-1.08-.484a5.5,5.5,0,0,1-.813-.479,2.089,2.089,0,0,1-.516-.518,1.091,1.091,0,0,1-.181-.618,1.039,1.039,0,0,1,.162-.571,1.4,1.4,0,0,1,.459-.436,2.439,2.439,0,0,1,.726-.283,4.211,4.211,0,0,1,.956-.1,5.942,5.942,0,0,1,.808.058,6.292,6.292,0,0,1,.856.177,5.994,5.994,0,0,1,.836.3,4.657,4.657,0,0,1,.751.422V13.9a7.509,7.509,0,0,0-1.525-.4,12.426,12.426,0,0,0-1.9-.129,8.767,8.767,0,0,0-2.064.235,5.239,5.239,0,0,0-1.716.733,3.655,3.655,0,0,0-1.171,1.271,3.731,3.731,0,0,0-.431,1.845,3.588,3.588,0,0,0,.789,2.34,6,6,0,0,0,2.395,1.639q.63.26,1.175.509a6.458,6.458,0,0,1,.942.517,2.463,2.463,0,0,1,.626.585,1.2,1.2,0,0,1,.23.719,1.1,1.1,0,0,1-.144.552,1.269,1.269,0,0,1-.435.441,2.381,2.381,0,0,1-.726.292,4.377,4.377,0,0,1-1.018.105,5.773,5.773,0,0,1-1.969-.35A5.874,5.874,0,0,1,18.245,23.759Zm-5.154-7.638h4V13.594H5.938v2.527H9.92V27.375h3.171Z"
                    style="fill:#ffffff;fill-rule:evenodd" />
            </svg>
        </symbol>
        <symbol id="vercel" viewBox="0 0 800 800">
            <svg fill="none" viewBox="0 0 283 64">
                <path fill="black"
                    d="M141 16c-11 0-19 7-19 18s9 18 20 18c7 0 13-3 16-7l-7-5c-2 3-6 4-9 4-5 0-9-3-10-7h28v-3c0-11-8-18-19-18zm-9 15c1-4 4-7 9-7s8 3 9 7h-18zm117-15c-11 0-19 7-19 18s9 18 20 18c6 0 12-3 16-7l-8-5c-2 3-5 4-8 4-5 0-9-3-11-7h28l1-3c0-11-8-18-19-18zm-10 15c2-4 5-7 10-7s8 3 9 7h-19zm-39 3c0 6 4 10 10 10 4 0 7-2 9-5l8 5c-3 5-9 8-17 8-11 0-19-7-19-18s8-18 19-18c8 0 14 3 17 8l-8 5c-2-3-5-5-9-5-6 0-10 4-10 10zm83-29v46h-9V5h9zM37 0l37 64H0L37 0zm92 5-27 48L74 5h10l18 30 17-30h10zm59 12v10l-3-1c-6 0-10 4-10 10v15h-9V17h9v9c0-5 6-9 13-9z" />
            </svg>
        </symbol>


    </defs>
</svg>